<?xml version="1.0" encoding="UTF-8"?>
<svg xmlns="http://www.w3.org/2000/svg" xmlns:xlink="http://www.w3.org/1999/xlink" width="300px" height="300px" viewBox="0 0 300 300" version="1.1">
<g id="surface1">
<path style=" stroke:none;fill-rule:nonzero;fill:#dfddd7;fill-opacity:1;" d="M 147.355469 17.046875 C 140.054688 17.199219 132.929688 17.917969 125.867188 19.21875 C 110.347656 22.070312 95.460938 27.683594 81.886719 35.796875 C 70.914062 42.355469 60.929688 50.476562 52.222656 59.917969 C 40.496094 72.628906 31.316406 87.566406 25.324219 103.707031 C 19.109375 120.433594 16.351562 138.167969 17.15625 156.183594 C 18.195312 179.289062 25.191406 201.558594 37.550781 221.109375 C 44.925781 232.777344 54.148438 243.304688 64.792969 252.207031 C 76.394531 261.90625 89.585938 269.578125 103.707031 274.824219 C 119.902344 280.84375 137.109375 283.628906 154.542969 283.054688 C 177.742188 282.285156 200.105469 275.554688 219.820312 263.402344 C 231.980469 255.90625 242.925781 246.433594 252.144531 235.429688 C 261.460938 224.304688 268.953125 211.632812 274.164062 198.179688 C 281.441406 179.386719 284.332031 159.292969 282.667969 138.988281 C 280.929688 117.695312 274.046875 97.140625 262.597656 79.035156 C 255.210938 67.355469 245.996094 56.84375 235.351562 47.9375 C 223.753906 38.242188 210.546875 30.5625 196.441406 25.324219 C 183.53125 20.527344 169.980469 17.78125 156.183594 17.15625 C 153.296875 17.027344 150.082031 16.988281 147.355469 17.046875 Z M 154.035156 20.570312 C 154.457031 20.585938 155.210938 20.617188 155.710938 20.636719 C 180.769531 21.710938 204.75 29.945312 225.179688 44.496094 C 237.789062 53.480469 248.757812 64.710938 257.441406 77.546875 C 267.847656 92.917969 274.785156 110.253906 277.84375 128.507812 C 278.722656 133.75 279.277344 139.058594 279.511719 144.421875 C 279.597656 146.492188 279.613281 147.199219 279.613281 150.074219 C 279.613281 152.949219 279.597656 153.65625 279.511719 155.726562 C 279.039062 166.582031 277.25 177.175781 274.136719 187.511719 C 268.828125 205.15625 259.730469 221.535156 247.496094 235.480469 C 234.476562 250.316406 218.257812 262.003906 200.132812 269.605469 C 186.058594 275.507812 171.089844 278.84375 155.726562 279.511719 C 153.65625 279.597656 152.949219 279.613281 150.074219 279.613281 C 147.199219 279.613281 146.492188 279.597656 144.421875 279.511719 C 133.636719 279.042969 123.074219 277.265625 112.8125 274.191406 C 95.089844 268.882812 78.65625 259.769531 64.667969 247.496094 C 48.128906 232.984375 35.542969 214.539062 28.128906 193.9375 C 23.726562 181.703125 21.203125 168.839844 20.636719 155.726562 C 20.546875 153.625 20.535156 152.976562 20.535156 150.074219 C 20.535156 146.769531 20.570312 145.421875 20.726562 142.644531 C 21.96875 120.585938 28.804688 99.324219 40.640625 80.695312 C 51.074219 64.273438 65.070312 50.386719 81.578125 40.082031 C 94.125 32.253906 107.914062 26.636719 122.324219 23.496094 C 129.003906 22.039062 135.8125 21.109375 142.644531 20.726562 C 144.207031 20.640625 145.226562 20.597656 147.519531 20.539062 C 148.191406 20.519531 153.335938 20.546875 154.035156 20.570312 Z M 154.035156 20.570312 "/>
<path style=" stroke:none;fill-rule:nonzero;fill:#dfddd7;fill-opacity:1;" d="M 108.863281 57.101562 C 101.21875 57.441406 94.109375 60.207031 88.964844 64.84375 C 84.300781 69.050781 81.476562 74.574219 80.875 80.667969 C 80.777344 81.671875 80.761719 82.019531 80.757812 83.183594 C 80.757812 84.363281 80.769531 84.617188 80.875 85.519531 C 81.28125 89.027344 82.703125 92.800781 85.082031 96.695312 C 86.15625 98.453125 87.304688 100.070312 88.914062 102.097656 C 89.289062 102.570312 90.441406 104.019531 91.472656 105.316406 L 93.34375 107.675781 L 92.792969 107.886719 C 88.417969 109.53125 84.773438 111.710938 81.46875 114.652344 C 81.066406 115.007812 79.609375 116.460938 79.246094 116.863281 C 78.070312 118.167969 76.984375 119.582031 76.105469 120.953125 C 74.382812 123.636719 73.066406 126.5625 72.160156 129.714844 C 71.308594 132.683594 70.835938 135.71875 70.6875 139.140625 C 70.652344 139.902344 70.652344 141.914062 70.6875 142.617188 C 71.054688 150.527344 73.851562 157.710938 78.851562 163.613281 C 79.714844 164.628906 81.246094 166.210938 82.15625 167.03125 C 85.707031 170.21875 89.65625 172.648438 94.183594 174.433594 C 100.699219 177 107.949219 177.957031 115.328125 177.226562 C 119.941406 176.765625 124.375 175.632812 128.421875 173.878906 C 132.59375 172.070312 136.359375 169.597656 139.527344 166.589844 C 139.867188 166.269531 139.933594 166.210938 139.960938 166.242188 C 139.980469 166.261719 141.695312 168.460938 143.773438 171.128906 C 145.855469 173.796875 147.578125 176.011719 147.613281 176.050781 L 147.667969 176.117188 L 149.570312 174.796875 C 150.613281 174.074219 151.480469 173.464844 151.492188 173.445312 C 151.507812 173.421875 150.34375 171.910156 147.394531 168.128906 C 145.125 165.226562 143.242188 162.808594 143.203125 162.761719 L 143.132812 162.671875 L 143.554688 162.109375 C 147.449219 156.929688 149.660156 151.046875 150.214844 144.382812 C 150.394531 142.171875 150.398438 139.839844 150.222656 137.5625 C 149.792969 131.972656 148.296875 126.910156 145.761719 122.457031 L 145.484375 121.96875 L 139.589844 121.96875 L 139.652344 122.050781 C 139.816406 122.269531 140.148438 122.742188 140.46875 123.226562 C 141.519531 124.8125 142.378906 126.46875 143.101562 128.28125 C 144.628906 132.128906 145.371094 136.566406 145.304688 141.425781 C 145.285156 142.835938 145.234375 143.652344 145.09375 144.890625 C 144.585938 149.363281 143.191406 153.46875 140.863281 157.339844 C 140.671875 157.65625 140.382812 158.121094 140.222656 158.363281 L 139.933594 158.804688 L 116.597656 129.316406 C 103.761719 113.101562 92.960938 99.460938 92.597656 99.007812 C 91.554688 97.707031 90.890625 96.792969 90.1875 95.710938 C 88.320312 92.84375 86.957031 89.820312 86.28125 87.09375 C 85.773438 85.023438 85.664062 83.265625 85.902344 80.820312 C 86.28125 76.917969 87.617188 73.5 89.875 70.660156 C 90.511719 69.859375 91.507812 68.808594 92.238281 68.175781 C 96.234375 64.6875 100.851562 62.605469 106.179688 61.886719 C 109.242188 61.472656 112.714844 61.519531 115.683594 62.015625 C 118.414062 62.46875 120.839844 63.253906 123.175781 64.4375 C 125.140625 65.433594 126.867188 66.628906 128.71875 68.285156 C 132.757812 71.890625 134.902344 76.746094 135.042969 82.605469 L 135.058594 83.285156 L 140.105469 83.285156 L 140.105469 83.023438 C 140.105469 82.640625 140.058594 81.6875 140.015625 81.152344 C 139.605469 76.148438 137.789062 71.582031 134.660156 67.707031 C 134.101562 67.011719 133.621094 66.488281 132.855469 65.71875 C 132.089844 64.953125 131.554688 64.46875 130.847656 63.894531 C 125.785156 59.785156 119.222656 57.414062 112.039062 57.097656 C 111.355469 57.070312 109.558594 57.070312 108.863281 57.101562 Z M 116.496094 136.867188 C 127.628906 150.847656 136.773438 162.339844 136.824219 162.398438 L 136.910156 162.507812 L 136.125 163.292969 C 135.34375 164.070312 134.921875 164.460938 134.25 165.019531 C 128.941406 169.457031 121.828125 172.179688 113.957031 172.792969 C 112.644531 172.894531 112.230469 172.90625 110.527344 172.90625 C 108.632812 172.90625 107.789062 172.871094 106.246094 172.714844 C 94.40625 171.53125 84.53125 165.417969 79.441406 156.117188 C 76.582031 150.902344 75.335938 144.847656 75.78125 138.378906 C 76.28125 131.136719 78.816406 124.863281 83.265625 119.859375 C 83.675781 119.402344 85.0625 118.019531 85.519531 117.613281 C 87.296875 116.039062 89.132812 114.753906 91.273438 113.574219 C 91.46875 113.46875 91.996094 113.199219 92.441406 112.976562 C 93.597656 112.40625 94.351562 112.078125 95.539062 111.628906 C 96.054688 111.4375 96.207031 111.386719 96.230469 111.410156 C 96.246094 111.429688 105.367188 122.878906 116.496094 136.867188 Z M 116.496094 136.867188 "/>
<path style=" stroke:none;fill-rule:nonzero;fill:#dfddd7;fill-opacity:1;" d="M 194.039062 104.945312 C 191.621094 104.996094 189.035156 105.320312 186.675781 105.867188 C 183.21875 106.671875 179.792969 108.054688 176.757812 109.867188 C 172.210938 112.578125 168.367188 116.242188 165.40625 120.679688 C 161.933594 125.878906 159.863281 131.914062 159.371094 138.261719 C 159.285156 139.34375 159.269531 139.851562 159.269531 141.222656 C 159.269531 142.597656 159.285156 143.070312 159.371094 144.15625 C 160.050781 152.800781 163.738281 160.84375 169.808594 166.914062 C 172.480469 169.585938 175.464844 171.753906 178.800781 173.441406 C 184.726562 176.441406 191.277344 177.679688 198.15625 177.097656 C 203.644531 176.632812 209.09375 174.972656 213.914062 172.289062 C 218.792969 169.578125 222.992188 165.863281 226.113281 161.492188 C 226.375 161.125 226.828125 160.460938 226.90625 160.328125 C 226.921875 160.304688 226.382812 160.296875 224.261719 160.296875 L 221.597656 160.296875 L 221.277344 160.710938 C 219.472656 163.011719 217.171875 165.203125 214.652344 167.015625 C 209.726562 170.558594 203.757812 172.789062 197.761719 173.324219 C 196.617188 173.425781 196.269531 173.441406 194.839844 173.441406 C 193.40625 173.441406 192.980469 173.421875 191.882812 173.324219 C 186.699219 172.855469 181.835938 171.175781 177.582031 168.378906 C 170.191406 163.523438 165.214844 155.683594 163.84375 146.722656 C 163.621094 145.261719 163.507812 143.925781 163.460938 142.167969 L 163.445312 141.652344 L 230.027344 141.652344 L 230.011719 140.59375 C 229.996094 139.507812 229.976562 139.160156 229.890625 138.074219 C 229.28125 130.53125 226.652344 123.597656 222.289062 118.007812 C 220.695312 115.96875 218.824219 114.066406 216.796875 112.441406 C 213.609375 109.878906 209.847656 107.863281 205.945312 106.628906 C 202.65625 105.589844 199.488281 105.058594 195.882812 104.953125 C 195.113281 104.929688 194.820312 104.925781 194.039062 104.945312 Z M 196.558594 108.761719 C 200.328125 108.976562 203.738281 109.785156 207.082031 111.257812 C 207.695312 111.527344 209.058594 112.214844 209.636719 112.546875 C 214.058594 115.082031 217.710938 118.640625 220.503906 123.136719 C 222.792969 126.820312 224.421875 131.128906 225.21875 135.621094 C 225.320312 136.203125 225.523438 137.550781 225.523438 137.660156 L 225.523438 137.714844 L 163.464844 137.714844 L 163.480469 137.542969 C 163.492188 137.449219 163.539062 137.109375 163.589844 136.789062 C 164.300781 132.152344 165.90625 127.800781 168.382812 123.808594 C 169.363281 122.234375 170.5625 120.628906 171.863281 119.164062 C 172.390625 118.570312 173.84375 117.113281 174.433594 116.59375 C 175.699219 115.472656 176.796875 114.628906 178.152344 113.730469 C 181.449219 111.558594 185.078125 110.0625 188.882812 109.308594 C 190.597656 108.96875 192.136719 108.792969 194.003906 108.726562 C 194.414062 108.710938 196.078125 108.734375 196.558594 108.761719 Z M 196.558594 108.761719 "/>
<path style=" stroke:none;fill-rule:nonzero;fill:#dfddd7;fill-opacity:1;" d="M 198.828125 207.757812 L 198.828125 227.378906 L 200.503906 227.378906 L 200.503906 219.851562 C 200.503906 212.390625 200.515625 211.328125 200.59375 210.53125 C 200.828125 208.097656 201.511719 206.101562 202.683594 204.433594 C 203.246094 203.628906 204.089844 202.789062 204.914062 202.214844 C 206.25 201.285156 207.824219 200.71875 209.738281 200.488281 C 210.285156 200.421875 212.027344 200.421875 212.582031 200.488281 C 214.433594 200.707031 215.933594 201.234375 217.253906 202.128906 C 219.816406 203.863281 221.359375 206.824219 221.722656 210.714844 C 221.808594 211.613281 221.816406 212.113281 221.816406 219.738281 L 221.816406 227.378906 L 223.492188 227.378906 L 223.484375 219.332031 C 223.476562 213.503906 223.464844 211.199219 223.445312 210.96875 C 223.34375 209.882812 223.261719 209.273438 223.121094 208.554688 C 222.433594 205.089844 220.824219 202.492188 218.351562 200.847656 C 216.320312 199.5 213.800781 198.855469 210.777344 198.910156 C 209.671875 198.933594 208.773438 199.023438 207.902344 199.199219 C 205.316406 199.722656 203.339844 200.960938 201.800781 203.03125 C 201.382812 203.589844 200.9375 204.300781 200.625 204.90625 L 200.515625 205.113281 L 200.507812 196.625 L 200.503906 188.136719 L 198.828125 188.136719 Z M 198.828125 207.757812 "/>
<path style=" stroke:none;fill-rule:nonzero;fill:#dfddd7;fill-opacity:1;" d="M 80.078125 195.507812 L 80.074219 199.347656 L 77.972656 199.355469 L 75.867188 199.363281 L 75.867188 200.859375 L 80.085938 200.859375 L 80.085938 207.855469 C 80.085938 212.296875 80.09375 215.015625 80.109375 215.300781 C 80.25 217.726562 80.742188 219.804688 81.59375 221.574219 C 81.964844 222.339844 82.414062 223.058594 82.917969 223.695312 C 83.238281 224.097656 84.050781 224.917969 84.414062 225.210938 C 85.203125 225.839844 86.082031 226.363281 86.992188 226.742188 C 87.429688 226.925781 88.195312 227.175781 88.683594 227.296875 C 89.121094 227.40625 89.722656 227.53125 89.824219 227.53125 L 89.890625 227.53125 L 89.875 225.976562 L 89.496094 225.878906 C 88.953125 225.746094 88.640625 225.644531 88.160156 225.453125 C 86.332031 224.730469 84.871094 223.550781 83.808594 221.941406 C 83.664062 221.726562 83.496094 221.457031 83.433594 221.34375 C 82.664062 219.992188 82.132812 218.289062 81.902344 216.429688 C 81.773438 215.386719 81.777344 215.785156 81.769531 208.054688 L 81.757812 200.859375 L 89.890625 200.859375 L 89.890625 199.363281 L 81.761719 199.363281 L 81.761719 191.664062 L 80.085938 191.664062 Z M 80.078125 195.507812 "/>
<path style=" stroke:none;fill-rule:nonzero;fill:#dfddd7;fill-opacity:1;" d="M 119.339844 198.921875 C 118.140625 198.984375 116.816406 199.234375 115.667969 199.613281 C 115.007812 199.835938 114.554688 200.019531 113.878906 200.351562 C 112.421875 201.070312 111.296875 201.875 110.144531 203.03125 C 109.390625 203.785156 108.9375 204.335938 108.367188 205.191406 C 106.957031 207.304688 106.164062 209.609375 105.9375 212.265625 C 105.890625 212.808594 105.898438 214.15625 105.953125 214.714844 C 106.136719 216.667969 106.621094 218.367188 107.476562 220.050781 C 107.996094 221.074219 108.574219 221.945312 109.328125 222.839844 C 109.6875 223.265625 110.585938 224.164062 110.992188 224.503906 C 113.332031 226.453125 115.980469 227.53125 119.0625 227.785156 C 119.527344 227.828125 120.757812 227.824219 121.257812 227.785156 C 124.027344 227.566406 126.601562 226.679688 128.863281 225.167969 C 130.371094 224.160156 131.636719 222.933594 132.683594 221.460938 L 132.964844 221.066406 L 131.894531 221.058594 L 130.824219 221.054688 L 130.785156 221.109375 C 130.765625 221.140625 130.636719 221.300781 130.503906 221.460938 C 128.378906 224.003906 125.3125 225.699219 121.957031 226.179688 C 121.285156 226.277344 120.960938 226.296875 120.089844 226.296875 C 119.207031 226.296875 118.855469 226.269531 118.121094 226.15625 C 114.53125 225.601562 111.398438 223.519531 109.484375 220.414062 C 109.1875 219.9375 108.710938 218.984375 108.507812 218.476562 C 107.988281 217.160156 107.671875 215.730469 107.605469 214.398438 C 107.597656 214.238281 107.585938 213.988281 107.578125 213.84375 L 107.566406 213.585938 L 134.210938 213.585938 L 134.210938 213.375 C 134.210938 213.066406 134.164062 212.304688 134.121094 211.859375 C 133.816406 208.78125 132.667969 205.988281 130.777344 203.71875 C 130.441406 203.320312 129.558594 202.4375 129.15625 202.105469 C 126.855469 200.191406 124.15625 199.136719 121.042969 198.929688 C 120.695312 198.90625 119.707031 198.902344 119.339844 198.921875 Z M 121.523438 200.488281 C 124.890625 200.894531 127.71875 202.53125 129.773438 205.265625 C 131.070312 207 131.996094 209.246094 132.328125 211.488281 C 132.359375 211.683594 132.390625 211.882812 132.398438 211.925781 L 132.410156 212.011719 L 107.574219 212.011719 L 107.625 211.699219 C 107.746094 210.882812 107.925781 210.144531 108.1875 209.355469 C 109.433594 205.625 112.199219 202.640625 115.695312 201.257812 C 116.8125 200.816406 117.941406 200.558594 119.25 200.445312 C 119.5625 200.417969 121.1875 200.453125 121.523438 200.488281 Z M 121.523438 200.488281 "/>
<path style=" stroke:none;fill-rule:nonzero;fill:#dfddd7;fill-opacity:1;" d="M 166.164062 198.933594 C 162.0625 199.261719 158.273438 201.40625 155.71875 204.847656 C 154.261719 206.8125 153.324219 209.125 153.035156 211.472656 C 152.886719 212.6875 152.902344 214.363281 153.074219 215.554688 C 153.636719 219.460938 156.007812 223.140625 159.449219 225.4375 C 160.234375 225.96875 161.246094 226.5 162.085938 226.839844 C 164.171875 227.675781 166.289062 227.972656 168.652344 227.769531 C 172.78125 227.414062 176.527344 225.332031 179.027344 222.003906 C 179.3125 221.625 179.703125 221.050781 179.703125 221.007812 C 179.703125 220.984375 179.460938 220.976562 178.738281 220.976562 L 177.78125 220.976562 L 177.539062 221.300781 C 177.140625 221.832031 176.902344 222.105469 176.351562 222.65625 C 175.652344 223.355469 175.160156 223.757812 174.390625 224.261719 C 171.6875 226.035156 168.363281 226.691406 165.132812 226.09375 C 162.601562 225.628906 160.175781 224.320312 158.332031 222.425781 C 156.929688 220.980469 155.90625 219.316406 155.28125 217.433594 C 154.394531 214.769531 154.398438 211.894531 155.296875 209.207031 C 155.636719 208.183594 156.210938 207.023438 156.816406 206.117188 C 157.832031 204.605469 159.195312 203.285156 160.734375 202.332031 C 162.480469 201.246094 164.441406 200.609375 166.515625 200.453125 C 167.03125 200.414062 168.398438 200.433594 168.855469 200.488281 C 171.433594 200.792969 173.664062 201.738281 175.601562 203.335938 C 176.171875 203.804688 177.011719 204.683594 177.476562 205.296875 L 177.597656 205.457031 L 178.550781 205.457031 C 179.304688 205.457031 179.5 205.449219 179.484375 205.425781 C 179.390625 205.273438 179.066406 204.800781 178.863281 204.53125 C 177.761719 203.058594 176.394531 201.847656 174.761719 200.886719 C 174.28125 200.601562 173.382812 200.167969 172.84375 199.949219 C 171.535156 199.433594 170.234375 199.117188 168.78125 198.964844 C 168.3125 198.917969 166.613281 198.898438 166.164062 198.933594 Z M 166.164062 198.933594 "/>
</g>
</svg>
